<svg width="25" height="25" viewBox="0 0 25 25" fill="none" xmlns="http://www.w3.org/2000/svg">
<path d="M12.1191 0.183594C5.42969 0.183594 0.00976562 5.60352 0.00976562 12.293C0.00976562 18.9824 5.42969 24.4023 12.1191 24.4023C18.8086 24.4023 24.2285 18.9824 24.2285 12.293C24.2285 5.60352 18.8086 0.183594 12.1191 0.183594ZM14.9072 17.2783L10.6006 14.1484C10.4492 14.0361 10.3613 13.8604 10.3613 13.6748V5.45703C10.3613 5.13477 10.625 4.87109 10.9473 4.87109H13.291C13.6133 4.87109 13.877 5.13477 13.877 5.45703V12.1807L16.9775 14.4365C17.2412 14.627 17.2949 14.9932 17.1045 15.2568L15.7275 17.1514C15.5371 17.4102 15.1709 17.4688 14.9072 17.2783Z" fill="#555555"/>
</svg>
