<svg width="24" height="18" viewBox="0 0 24 18" fill="none" xmlns="http://www.w3.org/2000/svg">
<path fill-rule="evenodd" clip-rule="evenodd" d="M0.701172 2.33182V14.272L7.10001 8.12454L0.701172 2.33182ZM3.00957 17.3555C2.09918 17.3555 1.30748 16.8537 0.932353 16.1299L8.21474 9.13367L8.88719 9.74242C10.792 11.4668 13.6936 11.4668 15.5984 9.74242L16.2711 9.13348L23.5539 16.1301C23.1787 16.8538 22.3871 17.3555 21.4768 17.3555H3.00957ZM23.7852 14.2723V2.33116L17.3858 8.12434L23.7852 14.2723ZM22.8783 0.454313C22.489 0.17333 22.0027 0.00585938 21.4768 0.00585938H3.00957C2.48345 0.00585938 1.99696 0.173446 1.60762 0.454605L10.2294 8.25973C11.3723 9.29435 13.1133 9.29435 14.2562 8.25973L22.8783 0.454313Z" fill="#555555"/>
</svg>
