<svg width="26" height="26" viewBox="0 0 26 26" fill="none" xmlns="http://www.w3.org/2000/svg">
<path d="M24.9058 17.9234L19.437 15.5796C19.2034 15.4801 18.9437 15.4591 18.6972 15.5199C18.4506 15.5806 18.2304 15.7198 18.0698 15.9166L15.6479 18.8755C11.847 17.0834 8.78819 14.0246 6.99609 10.2237L9.95508 7.8018C10.1522 7.64149 10.2917 7.42132 10.3525 7.17463C10.4133 6.92794 10.392 6.66816 10.292 6.43462L7.94824 0.965866C7.83843 0.714112 7.64422 0.508564 7.3991 0.384664C7.15397 0.260764 6.8733 0.226279 6.60547 0.287155L1.52734 1.45903C1.26913 1.51866 1.03874 1.66405 0.873796 1.87147C0.70885 2.0789 0.619081 2.33611 0.619141 2.60112C0.619141 15.1255 10.7705 25.2574 23.2754 25.2574C23.5405 25.2575 23.7978 25.1678 24.0053 25.0029C24.2129 24.8379 24.3583 24.6075 24.418 24.3492L25.5898 19.271C25.6503 19.0019 25.6151 18.7201 25.4903 18.4741C25.3654 18.2282 25.1587 18.0334 24.9058 17.9234V17.9234Z" fill="#555555"/>
</svg>
