<svg width="19" height="23" viewBox="0 0 19 23" fill="none" xmlns="http://www.w3.org/2000/svg">
<path fill-rule="evenodd" clip-rule="evenodd" d="M9.11914 22.8301C9.11914 22.8301 18.1191 16.8301 18.1191 9.83008C18.1191 7.44313 17.1709 5.15394 15.4831 3.46612C13.7953 1.77829 11.5061 0.830078 9.11914 0.830078C6.73219 0.830078 4.44301 1.77829 2.75518 3.46612C1.06735 5.15394 0.119141 7.44313 0.119141 9.83008C0.119141 16.8301 9.11914 22.8301 9.11914 22.8301ZM9.11914 5.83008C6.91 5.83008 5.11914 7.62094 5.11914 9.83008C5.11914 12.0392 6.91 13.8301 9.11914 13.8301C11.3283 13.8301 13.1191 12.0392 13.1191 9.83008C13.1191 7.62094 11.3283 5.83008 9.11914 5.83008Z" fill="#555555"/>
</svg>
