<svg width="175" height="175" viewBox="0 0 175 175" fill="none" xmlns="http://www.w3.org/2000/svg">
<path d="M83.9705 122.789C84.1905 123.229 84.8505 123.669 85.3905 123.669H89.2005C89.7505 123.669 90.4005 123.229 90.6205 122.789L106.21 83.0895C107.19 81.0295 107.96 81.1295 107.96 83.4195V107.739C107.96 110.139 106.65 111.999 105.13 111.999C103.61 111.999 102.4 113.849 102.4 116.249V126.289H128.9V119.089L129.01 116.249C129.01 113.859 127.7 111.999 126.17 111.999C124.86 111.999 123.88 110.799 123.44 109.159V68.7095C123.44 66.4195 124.54 64.5595 126.17 64.5595C127.7 64.5595 129.01 62.5995 129.01 60.3095V49.1895H104.91L86.9105 92.3795L68.9105 49.1895H44.5905V60.3095C44.5905 62.6095 45.7805 64.5595 47.3205 64.5595C48.9505 64.5595 50.1505 66.4195 50.1505 68.7095V107.749C50.1505 110.149 48.9605 112.009 47.3205 112.009C45.7905 112.009 44.5905 113.859 44.5905 116.259L44.4805 126.299H71.0905V116.259C71.0905 113.869 69.8905 112.009 68.3605 112.009C66.8305 112.009 65.5205 110.149 65.5205 107.749V83.4295C65.5205 81.1395 66.2905 81.0395 67.2705 83.0995L83.9505 122.799L83.9705 122.789Z" fill="white"/>
<path d="M87.13 0C135.11 0 174.27 39.15 174.27 87.13C174.27 135.11 135.11 174.26 87.13 174.26C39.15 174.26 0 135.12 0 87.13C0 39.14 39.15 0 87.13 0ZM87.13 17.34C48.74 17.34 17.34 48.64 17.34 87.13C17.34 125.62 48.75 156.92 87.13 156.92C125.51 156.92 156.93 125.51 156.93 87.13C156.93 48.75 125.63 17.34 87.13 17.34Z" fill="white"/>
</svg>
